<svg width="25" height="17" viewBox="0 0 25 17" fill="none" xmlns="http://www.w3.org/2000/svg">
<g id="layer1">
<g id="group">
<path id="path3" d="M0.640546 0.304642C0.640546 0.304642 11.6401 0.69891 14.8482 8.47105C11.0911 17.897 0.600586 16.6396 0.600586 16.6396C6.88444 8.86747 6.4283 7.91141 0.640536 0.304642H0.640546Z" />
<path id="path2" d="M5.79991 0.304642C5.79991 0.304642 16.7995 0.69891 20.0075 8.47105C16.2505 17.897 5.75995 16.6396 5.75995 16.6396C12.0438 8.86747 11.5877 7.91141 5.7999 0.304642H5.79991Z" />
<path id="path1" d="M10.1918 0.304642C10.1918 0.304642 21.1914 0.69891 24.3994 8.47105C20.6424 17.897 10.1518 16.6396 10.1518 16.6396C16.4357 8.86747 15.9795 7.91141 10.1918 0.304642H10.1918Z" />
</g>
</g>
</svg>
