<svg width="160" height="280" fill="none" xmlns="http://www.w3.org/2000/svg"><g opacity=".294" filter="url(#a)"><path d="M120.953 31.223H38.891c-9.22 0-16.693 8.06-16.693 18.001v190.73c0 9.942 7.474 18.002 16.693 18.002h82.062c9.219 0 16.693-8.06 16.693-18.002V49.224c0-9.942-7.474-18.001-16.693-18.001z" fill="#000"/><path d="M120.953 31.223H38.891c-9.22 0-16.693 8.06-16.693 18.001v190.73c0 9.942 7.474 18.002 16.693 18.002h82.062c9.219 0 16.693-8.06 16.693-18.002V49.224c0-9.942-7.474-18.001-16.693-18.001z" stroke="#fff" stroke-width="1.002" stroke-linecap="round" stroke-linejoin="round"/></g><path d="M120.953 23H38.891c-9.22 0-16.693 8.285-16.693 18.506V237.58c0 10.221 7.474 18.506 16.693 18.506h82.062c9.219 0 16.693-8.285 16.693-18.506V41.506c0-10.22-7.474-18.506-16.693-18.506z" fill="#fff" stroke="#fff" stroke-width="1.002" stroke-linecap="round" stroke-linejoin="round"/><path fill-rule="evenodd" clip-rule="evenodd" d="M22 235.573v2.2c0 10.252 7.473 18.505 16.754 18.505h82.361c9.281 0 16.754-8.253 16.754-18.505v-2.2H22z" fill="#39B637" fill-opacity=".952"/><path d="M37.225 44.524c2.327 0 4.213-2.091 4.213-4.671s-1.886-4.671-4.213-4.671c-2.328 0-4.214 2.091-4.214 4.671s1.886 4.671 4.214 4.671z" fill="#F0F0F2"/><g fill-rule="evenodd" clip-rule="evenodd" fill="#F0F0F2"><path d="M118.406 35.182h8.427v2.335h-8.427v-2.335zM118.406 38.685h8.427v2.336h-8.427v-2.336zM118.406 42.188h8.427v2.336h-8.427v-2.336z"/></g><path d="M73.776 55.501H34.381c-.757 0-1.37.68-1.37 1.518v5.372c0 .838.613 1.518 1.37 1.518h39.395c.757 0 1.37-.68 1.37-1.518v-5.372c0-.838-.614-1.518-1.37-1.518zM93.79 55.618H77.674c-.757 0-1.37.68-1.37 1.518v5.372c0 .838.613 1.518 1.37 1.518H93.79c.756 0 1.37-.68 1.37-1.518v-5.372c0-.839-.614-1.518-1.37-1.518zM125.496 55.618H97.898c-.756 0-1.37.68-1.37 1.518v5.372c0 .838.614 1.518 1.37 1.518h27.598c.757 0 1.37-.68 1.37-1.518v-5.372c0-.839-.613-1.518-1.37-1.518zM57.45 65.31H39.646c-.756 0-1.37.68-1.37 1.518V72.2c0 .838.614 1.518 1.37 1.518H57.45c.756 0 1.37-.68 1.37-1.518v-5.372c0-.838-.614-1.518-1.37-1.518zM101.796 65.31H61.452c-.756 0-1.37.68-1.37 1.518V72.2c0 .838.614 1.518 1.37 1.518h40.344c.756 0 1.369-.68 1.369-1.518v-5.372c0-.838-.613-1.518-1.369-1.518zM119.598 65.31h-13.8c-.756 0-1.369.68-1.369 1.518V72.2c0 .838.613 1.518 1.369 1.518h13.8c.756 0 1.369-.68 1.369-1.518v-5.372c0-.838-.613-1.518-1.369-1.518z" fill="#F0F0F2"/><path d="M111.559 44.524c2.327 0 4.213-2.091 4.213-4.671s-1.886-4.671-4.213-4.671-4.213 2.091-4.213 4.671 1.886 4.671 4.213 4.671z" fill="#42B940"/><path d="M111.536 37.109a1.603 1.603 0 0 0-1.212.61 1.97 1.97 0 0 0-.422 1.322c.022.486.217.941.541 1.268.324.327.752.498 1.19.477.437-.022.85-.235 1.147-.592.296-.358.454-.83.437-1.316l-.002-.046a1.925 1.925 0 0 0-.529-1.234 1.57 1.57 0 0 0-1.151-.489h.001zm-.076 4.283c-2.311-.029-2.328 1.486-2.328 1.486l4.854.021s-.018-1.526-2.526-1.507z" fill="#fff"/><path d="M99.27 79.921H60.574c-2.346 0-4.247 2.108-4.247 4.708s1.901 4.709 4.247 4.709H99.27c2.346 0 4.247-2.108 4.247-4.709 0-2.6-1.901-4.708-4.247-4.708z" fill="#F0F0F2"/><path d="M99.27 84.345H60.574c-2.346 0-4.247 2.108-4.247 4.708s1.901 4.709 4.247 4.709H99.27c2.346 0 4.247-2.108 4.247-4.709 0-2.6-1.901-4.708-4.247-4.708zM65.88 118.48H42.75c-2.339 0-4.235 2.102-4.235 4.695v16.3c0 2.593 1.896 4.695 4.235 4.695h23.13c2.34 0 4.236-2.102 4.236-4.695v-16.3c0-2.593-1.896-4.695-4.235-4.695zM63.212 158.233c1.816 0 3.287-1.631 3.287-3.643 0-2.013-1.471-3.644-3.287-3.644-1.815 0-3.287 1.631-3.287 3.644 0 2.012 1.472 3.643 3.287 3.643z" fill="#42B940"/><path d="M69.633 146.688H39.19c-.267 0-.483.239-.483.535v1.894c0 .296.216.535.483.535h30.443c.267 0 .483-.239.483-.535v-1.894c0-.296-.216-.535-.483-.535zM54.501 150.937H38.943c-.13 0-.236.117-.236.261v.924c0 .144.106.261.236.261H54.5c.13 0 .236-.117.236-.261v-.924c0-.144-.105-.261-.236-.261zM54.501 153.83H38.943c-.13 0-.236.117-.236.261v.924c0 .145.106.262.236.262H54.5c.13 0 .236-.117.236-.262v-.924c0-.144-.105-.261-.236-.261zM54.501 156.723H38.943c-.13 0-.236.117-.236.261v.924c0 .145.106.262.236.262H54.5c.13 0 .236-.117.236-.262v-.924c0-.144-.105-.261-.236-.261z" fill="#F0F0F2"/><g><path d="M116.937 118.48h-23.13c-2.34 0-4.236 2.102-4.236 4.695v16.3c0 2.593 1.896 4.695 4.235 4.695h23.131c2.339 0 4.235-2.102 4.235-4.695v-16.3c0-2.593-1.896-4.695-4.235-4.695zM114.406 158.233c1.815 0 3.287-1.631 3.287-3.643 0-2.013-1.472-3.644-3.287-3.644-1.816 0-3.287 1.631-3.287 3.644 0 2.012 1.471 3.643 3.287 3.643z" fill="#42B940"/><path d="M120.827 146.688H90.383c-.266 0-.482.239-.482.535v1.894c0 .296.216.535.483.535h30.443c.266 0 .482-.239.482-.535v-1.894c0-.296-.216-.535-.482-.535zM105.695 150.937H90.136c-.13 0-.235.117-.235.261v.924c0 .144.105.261.235.261h15.559c.13 0 .235-.117.235-.261v-.924c0-.144-.105-.261-.235-.261zM105.695 153.83H90.136c-.13 0-.235.117-.235.261v.924c0 .145.105.262.235.262h15.559c.13 0 .235-.117.235-.262v-.924c0-.144-.105-.261-.235-.261zM105.695 156.723H90.136c-.13 0-.235.117-.235.261v.924c0 .145.105.262.235.262h15.559c.13 0 .235-.117.235-.262v-.924c0-.144-.105-.261-.235-.261z" fill="#F0F0F2"/></g><g><path d="M116.937 165.216h-23.13c-2.34 0-4.236 2.102-4.236 4.695v16.301c0 2.593 1.896 4.695 4.235 4.695h23.131c2.339 0 4.235-2.102 4.235-4.695v-16.301c0-2.593-1.896-4.695-4.235-4.695zM114.406 205.411c1.815 0 3.287-1.631 3.287-3.644 0-2.012-1.472-3.644-3.287-3.644-1.816 0-3.287 1.632-3.287 3.644 0 2.013 1.471 3.644 3.287 3.644z" fill="#42B940"/><path d="M120.827 193.865H90.383c-.266 0-.482.24-.482.536v1.894c0 .295.216.535.483.535h30.443c.266 0 .482-.24.482-.535v-1.894c0-.296-.216-.536-.482-.536zM105.695 198.115H90.136c-.13 0-.235.116-.235.261v.924c0 .144.105.261.235.261h15.559c.13 0 .235-.117.235-.261v-.924c0-.145-.105-.261-.235-.261zM105.695 201.008H90.136c-.13 0-.235.117-.235.261v.924c0 .144.105.261.235.261h15.559c.13 0 .235-.117.235-.261v-.924c0-.144-.105-.261-.235-.261zM105.695 203.901H90.136c-.13 0-.235.117-.235.261v.924c0 .144.105.261.235.261h15.559c.13 0 .235-.117.235-.261v-.924c0-.144-.105-.261-.235-.261z" fill="#F0F0F2"/></g><g><path d="M65.88 165.216H42.75c-2.339 0-4.235 2.102-4.235 4.695v16.301c0 2.593 1.896 4.695 4.235 4.695h23.13c2.34 0 4.236-2.102 4.236-4.695v-16.301c0-2.593-1.896-4.695-4.235-4.695zM63.212 205.411c1.816 0 3.287-1.631 3.287-3.644 0-2.012-1.471-3.644-3.287-3.644-1.815 0-3.287 1.632-3.287 3.644 0 2.013 1.472 3.644 3.287 3.644z" fill="#42B940"/><path d="M69.633 193.865H39.19c-.267 0-.483.24-.483.536v1.894c0 .295.216.535.483.535h30.443c.267 0 .483-.24.483-.535v-1.894c0-.296-.216-.536-.483-.536zM54.501 198.115H38.943c-.13 0-.236.116-.236.261v.924c0 .144.106.261.236.261H54.5c.13 0 .236-.117.236-.261v-.924c0-.145-.105-.261-.236-.261zM54.501 201.008H38.943c-.13 0-.236.117-.236.261v.924c0 .144.106.261.236.261H54.5c.13 0 .236-.117.236-.261v-.924c0-.144-.105-.261-.236-.261zM54.501 203.901H38.943c-.13 0-.236.117-.236.261v.924c0 .144.106.261.236.261H54.5c.13 0 .236-.117.236-.261v-.924c0-.144-.105-.261-.236-.261z" fill="#F0F0F2"/></g><g><path d="M123.59 250.831c2.444 0 4.424-2.196 4.424-4.905s-1.98-4.905-4.424-4.905c-2.443 0-4.424 2.196-4.424 4.905s1.981 4.905 4.424 4.905z" fill="#fff"/><path d="M121.286 245.363c.711-.263 2.649-.088 3.268 0-.579-.424-1.034-1.046-1.261-1.399-.013-.219-.224-.092 0-.49.127-.259.833 0 .833 0s1.44 1.451 1.704 1.889c.21.321.342.884 0 1.176-.356.584-1.428 1.758-1.704 1.889-.382.146-.773 0-.773 0-.224-.175 0-.526 0-.526.171-.394.771-1.103 1.271-1.409-.803.19-2.604.19-3.328 0-.158-.423-.247-.897-.01-1.13z" fill="#39B637"/></g><defs><filter id="a" x="7.758" y="16.783" width="144.327" height="255.613" filterUnits="userSpaceOnUse" color-interpolation-filters="sRGB"><feFlood flood-opacity="0" result="BackgroundImageFix"/><feBlend in="SourceGraphic" in2="BackgroundImageFix" result="shape"/><feGaussianBlur stdDeviation="6.97" result="effect1_foregroundBlur"/></filter></defs></svg>